<svg xmlns="http://www.w3.org/2000/svg" viewBox="0 0 462 244" width="462" height="244"><defs></defs><g transform="matrix(1,0,0,1,-20.127965361,-128.404228829)">
<g>
	<g>
		<g transform="matrix(0.345669087,-0.110630497,0.110630497,0.345669087,16.574164849,208.668151461)">
			<g>
				<path d="M85.69999631138853,182.63157979061725 C104.97433630541127,220.91023944689368 90.84417575708721,267.57868318357214 53.57368034643878,288.7368411335192 C19.468419923079637,300.73683459432505 -21.45789559655441,272.5684276235479 -37.79473802787379,225.9158048416939 C-57.10318944606752,187.6375266551404 -42.98914097419856,140.94262096610328 -5.710529293261061,119.76842121043956 C28.39473113009808,107.7684277496337 69.32105166907058,135.93683472041084 85.69999631138853,182.5894775796187 C85.69999631138853,182.5894775796187 85.69999631138853,182.63157979061725 85.69999631138853,182.63157979061725 ZM360.2684309680335,514.3368306298507 C330.209138812781,514.3779088958036 301.3729590533476,502.4373444023586 280.1421210825065,481.1578790805215 C263.76743283920223,464.7961608077967 237.23255953140324,464.7961608077967 220.85789136545282,481.1578790805215 C176.52010717172016,524.9888305539644 105.10764993489647,524.7835596883233 61.02258943260131,480.6984690699974 C16.937518891629225,436.61337845167145 16.732248025988156,365.20092121484777 60.56315934472332,320.8631370211151 C110.9237381041421,270.4627950624199 179.25122961432135,242.14481180554867 250.49999618530273,242.14481180554867 C321.7487426789303,242.14481180554867 390.0762341891095,270.4627950624199 440.43682298720523,320.8631370211151 C472.8405075954288,353.284891247793 482.52658602638985,402.03202373674867 464.97954093776934,444.37901783330744 C447.43249584914884,486.7260119298662 406.1069170517512,514.3357866074512 360.2684309680335,514.3368306298507 C360.2684309680335,514.3368306298507 360.2684309680335,514.3368306298507 360.2684309680335,514.3368306298507 ZM239.13157604418302,105.03158326118864 C244.4789383107236,161.3263150690982 215.42630459956126,210.12633130806353 174.28947300559594,214.00001580288517 C133.15262133427677,217.87370029770682 95.46841197043977,175.3894774876644 90.16315191489775,119.09472560240101 C84.81578964835717,62.84209600549002 113.86842335951951,14.042099843878532 155.00525495348484,10.168415349056886 C196.142106624804,6.252628643236676 233.78421377764244,48.73683137592525 239.13157604418302,105.03158326118864 C239.13157604418302,105.03158326118864 239.13157604418302,105.03158326118864 239.13157604418302,105.03158326118864 ZM261.8684364037763,105.03158326118864 C256.521033982528,161.3263150690982 285.5736877710442,210.12633130806353 326.71053944236337,214.00001580288517 C367.84735095897486,217.87370029770682 405.4894581118133,175.3894774876644 410.8368203783539,119.09472560240101 C416.18422279960214,62.84209600549002 387.13156901108596,14.042099843878532 345.9947173397668,10.168415349056886 C304.8579058231553,6.252628643236676 267.17367638196447,48.73683137592525 261.8684364037763,105.03158326118864 C261.8684364037763,105.03158326118864 261.8684364037763,105.03158326118864 261.8684364037763,105.03158326118864 ZM415.2999759818631,182.5894775796187 C395.9713869777697,220.88895745182526 410.1084139811064,267.617151393526 447.4263120241667,288.7789232671639 C481.53159252487967,300.73683459432505 522.4578729091445,272.5684276235479 538.7947354178177,225.9158048416939 C558.1031667586576,187.6375266551404 543.9891484028194,140.94262096610328 506.71052166386653,119.76842121043956 C472.60524116315355,107.7684277496337 431.6789607788887,135.93683472041084 415.2999759818631,182.5894775796187 C415.2999759818631,182.5894775796187 415.2999759818631,182.5894775796187 415.2999759818631,182.5894775796187 Z" fill="#fefefe"/>
			</g>
		</g>
	</g>
	<g>
		<g transform="matrix(0.302855326,0.200012189,-0.200012189,0.302855326,349.836579556,96.730497681)">
			<g>
				<path d="M85.69999631138853,182.63157979061725 C104.97433630541127,220.91023944689368 90.84417575708721,267.57868318357214 53.57368034643878,288.7368411335192 C19.468419923079637,300.73683459432505 -21.45789559655441,272.5684276235479 -37.79473802787379,225.9158048416939 C-57.10318944606752,187.6375266551404 -42.98914097419856,140.94262096610328 -5.710529293261061,119.76842121043956 C28.39473113009808,107.7684277496337 69.32105166907058,135.93683472041084 85.69999631138853,182.5894775796187 C85.69999631138853,182.5894775796187 85.69999631138853,182.63157979061725 85.69999631138853,182.63157979061725 ZM360.2684309680335,514.3368306298507 C330.209138812781,514.3779088958036 301.3729590533476,502.4373444023586 280.1421210825065,481.1578790805215 C263.76743283920223,464.7961608077967 237.23255953140324,464.7961608077967 220.85789136545282,481.1578790805215 C176.52010717172016,524.9888305539644 105.10764993489647,524.7835596883233 61.02258943260131,480.6984690699974 C16.937518891629225,436.61337845167145 16.732248025988156,365.20092121484777 60.56315934472332,320.8631370211151 C110.9237381041421,270.4627950624199 179.25122961432135,242.14481180554867 250.49999618530273,242.14481180554867 C321.7487426789303,242.14481180554867 390.0762341891095,270.4627950624199 440.43682298720523,320.8631370211151 C472.8405075954288,353.284891247793 482.52658602638985,402.03202373674867 464.97954093776934,444.37901783330744 C447.43249584914884,486.7260119298662 406.1069170517512,514.3357866074512 360.2684309680335,514.3368306298507 C360.2684309680335,514.3368306298507 360.2684309680335,514.3368306298507 360.2684309680335,514.3368306298507 ZM239.13157604418302,105.03158326118864 C244.4789383107236,161.3263150690982 215.42630459956126,210.12633130806353 174.28947300559594,214.00001580288517 C133.15262133427677,217.87370029770682 95.46841197043977,175.3894774876644 90.16315191489775,119.09472560240101 C84.81578964835717,62.84209600549002 113.86842335951951,14.042099843878532 155.00525495348484,10.168415349056886 C196.142106624804,6.252628643236676 233.78421377764244,48.73683137592525 239.13157604418302,105.03158326118864 C239.13157604418302,105.03158326118864 239.13157604418302,105.03158326118864 239.13157604418302,105.03158326118864 ZM261.8684364037763,105.03158326118864 C256.521033982528,161.3263150690982 285.5736877710442,210.12633130806353 326.71053944236337,214.00001580288517 C367.84735095897486,217.87370029770682 405.4894581118133,175.3894774876644 410.8368203783539,119.09472560240101 C416.18422279960214,62.84209600549002 387.13156901108596,14.042099843878532 345.9947173397668,10.168415349056886 C304.8579058231553,6.252628643236676 267.17367638196447,48.73683137592525 261.8684364037763,105.03158326118864 C261.8684364037763,105.03158326118864 261.8684364037763,105.03158326118864 261.8684364037763,105.03158326118864 ZM415.2999759818631,182.5894775796187 C395.9713869777697,220.88895745182526 410.1084139811064,267.617151393526 447.4263120241667,288.7789232671639 C481.53159252487967,300.73683459432505 522.4578729091445,272.5684276235479 538.7947354178177,225.9158048416939 C558.1031667586576,187.6375266551404 543.9891484028194,140.94262096610328 506.71052166386653,119.76842121043956 C472.60524116315355,107.7684277496337 431.6789607788887,135.93683472041084 415.2999759818631,182.5894775796187 C415.2999759818631,182.5894775796187 415.2999759818631,182.5894775796187 415.2999759818631,182.5894775796187 Z" fill="#fefefe"/>
			</g>
		</g>
	</g>
</g></g></svg>